<svg xmlns="http://www.w3.org/2000/svg" xmlns:xlink="http://www.w3.org/1999/xlink" width="1920" height="600" viewBox="0 0 1920 600">
  <defs>
    <style>
      .cls-1 {
        fill: #f6f6f6;
      }

      .cls-2 {
        clip-path: url(#clip-path);
      }

      .cls-3 {
        fill: #f7f8fc;
      }

      .cls-4 {
        fill: #fff;
      }

      .cls-5 {
        fill: #f8c212;
      }

      .cls-6 {
        fill: #282d33;
      }
    </style>
    <clipPath id="clip-path">
      <rect id="Rectangle_13" data-name="Rectangle 13" class="cls-1" width="1920" height="600" transform="translate(0 1596)"/>
    </clipPath>
  </defs>
  <g id="Clip" class="cls-2" transform="translate(0 -1596)">
    <g id="Vector_Smart_Object" data-name="Vector Smart Object" transform="translate(-4900.979 457.099)">
      <g id="Сгруппировать_151" data-name="Сгруппировать 151">
        <path id="Контур_159" data-name="Контур 159" class="cls-3" d="M6374.386,1499.143c-.035-147.84-121.37-267.827-270.961-267.958-149.6-.007-270.8,120.091-270.912,267.82.126,148.041,121.363,268.076,270.982,268.027C6253.114,1767.123,6374.373,1647.08,6374.386,1499.143Z"/>
        <path id="Контур_160" data-name="Контур 160" class="cls-4" d="M6382.533,1499.143c-.028-152.283-125.011-275.884-279.1-276.022-154.119-.007-278.955,123.7-279.066,275.87.119,152.5,125,276.153,279.137,276.1C6257.613,1775.179,6382.519,1651.53,6382.533,1499.143Z"/>
        <path id="Контур_161" data-name="Контур 161" class="cls-5" d="M6315,1499.143c-.027-115.427-94.757-209.115-211.558-209.212-116.822-.007-211.453,93.765-211.523,209.1.1,115.593,94.75,209.316,211.579,209.281C6220.3,1708.39,6314.983,1614.653,6315,1499.143Z"/>
        <path id="Контур_162" data-name="Контур 162" class="cls-4" d="M6248.621,1499.15c-.028-79.206-65.042-143.494-145.175-143.57-80.154,0-145.1,64.343-145.147,143.5.056,79.317,65.021,143.618,145.182,143.6C6183.643,1642.727,6248.607,1578.412,6248.621,1499.15Z"/>
        <path id="Контур_163" data-name="Контур 163" class="cls-5" d="M6169.431,1499.15c-.007-35.993-29.541-65.214-65.978-65.248-36.423,0-65.943,29.242-65.971,65.214.042,36.048,29.562,65.283,65.992,65.262C6139.9,1564.406,6169.431,1535.171,6169.431,1499.15Z"/>
        <g id="Сгруппировать_145" data-name="Сгруппировать 145">
          <g id="Сгруппировать_144" data-name="Сгруппировать 144">
            <path id="Контур_164" data-name="Контур 164" class="cls-6" d="M6103.711,1791.313h-.216c-162.845,0-295.4-131.139-295.514-292.336.083-161.058,132.612-292.08,295.423-292.08,162.943.145,295.506,131.243,295.535,292.239,0,78.025-30.708,151.392-86.45,206.573C6256.712,1760.911,6182.566,1791.313,6103.711,1791.313Zm-.287-556.777c-147.424,0-267.418,118.626-267.5,264.441.1,145.947,120.12,264.7,267.51,264.7h.272c71.4,0,138.51-27.521,189-77.5,50.474-49.964,78.275-116.394,78.275-187.032C6370.963,1353.369,6250.927,1234.668,6103.425,1234.536Z"/>
          </g>
        </g>
        <g id="Сгруппировать_150" data-name="Сгруппировать 150">
          <g id="Сгруппировать_146" data-name="Сгруппировать 146">
            <path id="Контур_165" data-name="Контур 165" class="cls-4" d="M6141.088,1604.141l-6.939-6.865-33.393-100.133,101.271,33.017,6.945,6.865"/>
            <path id="Контур_166" data-name="Контур 166" class="cls-6" d="M6131.208,1613.916l-9.293-9.191-43.109-129.29,130.746,42.629,9.293,9.18L6199.1,1546.8l-4.6-4.544-71.788-23.4,23.677,70.976,4.585,4.544Z"/>
          </g>
          <g id="Сгруппировать_147" data-name="Сгруппировать 147">
            <rect id="Прямоугольник_75" data-name="Прямоугольник 75" class="cls-5" width="97.204" height="333.377" transform="translate(6141.157 1605.062) rotate(-45)"/>
            <path id="Контур_167" data-name="Контур 167" class="cls-6" d="M6209.893,1556.625l218.6,216.2-48.972,48.43-218.608-216.191,48.979-48.437m0-39.088-88.5,87.525,258.126,255.279,88.5-87.518-258.126-255.286Z"/>
          </g>
          <g id="Сгруппировать_148" data-name="Сгруппировать 148">
            <rect id="Прямоугольник_76" data-name="Прямоугольник 76" class="cls-6" width="27.945" height="325.867" transform="translate(6174.455 1589.567) rotate(-45.001)"/>
          </g>
          <g id="Сгруппировать_149" data-name="Сгруппировать 149">
            <path id="Контур_168" data-name="Контур 168" class="cls-6" d="M6419.843,1890.9a21.783,21.783,0,0,1-15.448-6.17l-27.619-27.314,19.759-19.541,23.888,23.618,48.77-48.244-23.875-23.61,19.766-19.541,27.605,27.307a21.281,21.281,0,0,1,6.288,15.277,25.383,25.383,0,0,1-7.707,17.827l-53.443,52.866A25.762,25.762,0,0,1,6419.843,1890.9Z"/>
          </g>
        </g>
      </g>
    </g>
  </g>
</svg>
