<svg xmlns="http://www.w3.org/2000/svg" width="899.999" height="371.002" viewBox="0 0 899.999 371.002">
  <defs>
    <style>
      .cls-1, .cls-32 {
        fill: #d5e962;
      }

      .cls-1, .cls-10, .cls-14, .cls-15, .cls-16, .cls-17, .cls-2, .cls-25, .cls-28, .cls-29, .cls-3, .cls-30, .cls-31, .cls-32, .cls-34, .cls-35, .cls-36, .cls-37, .cls-38, .cls-39, .cls-4, .cls-40, .cls-41, .cls-42, .cls-43, .cls-44, .cls-45, .cls-5, .cls-6, .cls-7, .cls-8, .cls-9 {
        stroke: #484f59;
      }

      .cls-1, .cls-10, .cls-11, .cls-12, .cls-14, .cls-17, .cls-2, .cls-25, .cls-29, .cls-3, .cls-30, .cls-31, .cls-32, .cls-36, .cls-38, .cls-39, .cls-40, .cls-41, .cls-42, .cls-43, .cls-44, .cls-5, .cls-6, .cls-7, .cls-8 {
        stroke-width: 4.348px;
      }

      .cls-2 {
        fill: #c0d44c;
      }

      .cls-21, .cls-29, .cls-3 {
        fill: #01dee9;
      }

      .cls-13, .cls-14, .cls-15, .cls-25, .cls-27, .cls-28, .cls-34, .cls-35, .cls-36, .cls-37, .cls-4, .cls-5, .cls-9 {
        fill: none;
      }

      .cls-35, .cls-37, .cls-4 {
        stroke-width: 4.347px;
      }

      .cls-24, .cls-39, .cls-44, .cls-6 {
        fill: #f8c212;
      }

      .cls-16, .cls-7 {
        fill: #ffdc69;
      }

      .cls-10, .cls-20, .cls-8 {
        fill: #cdd5d7;
      }

      .cls-13, .cls-15, .cls-28, .cls-34, .cls-9 {
        stroke-width: 4.35px;
      }

      .cls-10, .cls-14, .cls-15, .cls-29, .cls-30, .cls-31, .cls-32, .cls-37, .cls-42, .cls-43, .cls-44, .cls-45 {
        stroke-miterlimit: 10;
      }

      .cls-11, .cls-19, .cls-31 {
        fill: #fff;
      }

      .cls-11, .cls-12, .cls-13 {
        stroke: #424953;
      }

      .cls-12, .cls-17, .cls-18, .cls-43, .cls-45 {
        fill: #e5e8ec;
      }

      .cls-16, .cls-45 {
        stroke-width: 4.348px;
      }

      .cls-22 {
        fill: #484f59;
      }

      .cls-23 {
        fill: #01cbd6;
      }

      .cls-25, .cls-28, .cls-34, .cls-36, .cls-38, .cls-39, .cls-40, .cls-41 {
        stroke-linejoin: round;
      }

      .cls-26 {
        fill: #b7bec0;
      }

      .cls-30, .cls-40 {
        fill: #f6fafb;
      }

      .cls-33 {
        fill: #f7f8fc;
      }

      .cls-34, .cls-35, .cls-36, .cls-38, .cls-39, .cls-40, .cls-41 {
        stroke-linecap: round;
      }

      .cls-38 {
        fill: #ff8f8f;
      }

      .cls-41 {
        fill: #e9f8ff;
      }

      .cls-42 {
        fill: #ffc400;
      }
    </style>
  </defs>
  <g id="Vector_Smart_Object" data-name="Vector Smart Object" transform="translate(-124.974 -100.02)">
    <g id="Сгруппировать_1" data-name="Сгруппировать 1">
      <rect id="Прямоугольник_1" data-name="Прямоугольник 1" class="cls-1" width="22.716" height="132.06" transform="translate(391.786 315.176)"/>
      <rect id="Прямоугольник_2" data-name="Прямоугольник 2" class="cls-2" width="22.716" height="18.105" transform="translate(391.786 326.891)"/>
    </g>
    <g id="Сгруппировать_2" data-name="Сгруппировать 2">
      <rect id="Прямоугольник_3" data-name="Прямоугольник 3" class="cls-3" width="24.227" height="125.576" transform="translate(367.055 321.66)"/>
      <line id="Линия_1" data-name="Линия 1" class="cls-4" y2="12.074" transform="translate(379.169 351.401)"/>
      <line id="Линия_2" data-name="Линия 2" class="cls-4" y2="63.75" transform="translate(379.169 368.303)"/>
      <rect id="Прямоугольник_4" data-name="Прямоугольник 4" class="cls-5" width="8.458" height="8.452" transform="translate(374.94 331.116)"/>
    </g>
    <g id="Сгруппировать_3" data-name="Сгруппировать 3">
      <rect id="Прямоугольник_5" data-name="Прямоугольник 5" class="cls-6" width="132.154" height="14.974" transform="translate(786.739 432.264)"/>
      <rect id="Прямоугольник_6" data-name="Прямоугольник 6" class="cls-7" width="18.118" height="14.974" transform="translate(889.053 432.264)"/>
    </g>
    <g id="Сгруппировать_4" data-name="Сгруппировать 4">
      <rect id="Прямоугольник_7" data-name="Прямоугольник 7" class="cls-8" width="125.666" height="24.211" transform="translate(780.939 407.244)"/>
      <line id="Линия_3" data-name="Линия 3" class="cls-9" x1="12.082" transform="translate(869.11 419.35)"/>
      <line id="Линия_4" data-name="Линия 4" class="cls-4" y1="12.074" transform="translate(897.382 413.312)"/>
      <line id="Линия_5" data-name="Линия 5" class="cls-4" y1="12.074" transform="translate(791.056 413.312)"/>
      <line id="Линия_6" data-name="Линия 6" class="cls-9" x1="63.796" transform="translate(800.482 419.35)"/>
    </g>
    <g id="Сгруппировать_5" data-name="Сгруппировать 5">
      <path id="Контур_1" data-name="Контур 1" class="cls-10" d="M754.313,360.946V158.166a9.515,9.515,0,0,0-9.5-9.494H416.9a9.508,9.508,0,0,0-9.5,9.494v202.78Z"/>
      <rect id="Прямоугольник_8" data-name="Прямоугольник 8" class="cls-11" width="314.357" height="179.022" transform="translate(423.676 165.194)"/>
      <path id="Контур_2" data-name="Контур 2" class="cls-11" d="M407.127,360.743v29.244c0,5.606,5.753,11.85,11.367,11.85H745.606c5.614,0,8.976-5.759,8.976-11.368V360.743Z"/>
      <path id="Контур_3" data-name="Контур 3" class="cls-12" d="M635.307,447.235c-3.087-1.342-6.8-3.021-9-4.219-3.832-2.128-4.585-2.376-6.017-9.6-1.567-7.9-.28-23.672-.87-30.942l-76.978-.4c-.6,7.268.7,23.438-.871,31.339-1.434,7.228-2.436,7.476-6.278,9.6-2.163,1.191-5.826,2.846-8.891,4.167h0"/>
      <line id="Линия_7" data-name="Линия 7" class="cls-13" x2="128.351" transform="translate(516.679 447.223)"/>
    </g>
    <g id="Сгруппировать_6" data-name="Сгруппировать 6">
      <rect id="Прямоугольник_9" data-name="Прямоугольник 9" class="cls-14" width="10.105" height="10.095" transform="translate(440.752 300.086)"/>
      <line id="Линия_8" data-name="Линия 8" class="cls-15" x2="18.041" transform="translate(457.075 305.135)"/>
    </g>
    <g id="Сгруппировать_7" data-name="Сгруппировать 7">
      <rect id="Прямоугольник_10" data-name="Прямоугольник 10" class="cls-14" width="10.105" height="10.095" transform="translate(483.952 300.086)"/>
      <line id="Линия_9" data-name="Линия 9" class="cls-15" x2="18.041" transform="translate(500.276 305.135)"/>
    </g>
    <g id="Сгруппировать_8" data-name="Сгруппировать 8">
      <rect id="Прямоугольник_11" data-name="Прямоугольник 11" class="cls-14" width="10.104" height="10.095" transform="translate(527.154 300.086)"/>
      <line id="Линия_10" data-name="Линия 10" class="cls-15" x2="18.04" transform="translate(543.477 305.135)"/>
    </g>
    <line id="Линия_11" data-name="Линия 11" class="cls-15" x2="10.249" transform="translate(924.559 447.236)"/>
    <line id="Линия_12" data-name="Линия 12" class="cls-15" x2="18.505" transform="translate(992.804 447.236)"/>
    <line id="Линия_13" data-name="Линия 13" class="cls-15" x1="14.655" transform="translate(124.974 447.238)"/>
    <line id="Линия_14" data-name="Линия 14" class="cls-15" x1="49.559" transform="translate(146.155 447.238)"/>
    <line id="Линия_15" data-name="Линия 15" class="cls-15" x2="128.281" transform="translate(651.228 447.236)"/>
    <line id="Линия_16" data-name="Линия 16" class="cls-15" x2="90.989" transform="translate(420.091 447.236)"/>
    <g id="Сгруппировать_9" data-name="Сгруппировать 9">
      <rect id="Прямоугольник_12" data-name="Прямоугольник 12" class="cls-6" width="118.055" height="20.249" transform="matrix(0.107, -0.994, 0.994, 0.107, 318.364, 445.817)"/>
      <rect id="Прямоугольник_13" data-name="Прямоугольник 13" class="cls-16" width="18.105" height="20.249" transform="matrix(0.107, -0.994, 0.994, 0.107, 319.615, 434.17)"/>
      <line id="Линия_17" data-name="Линия 17" class="cls-7" x1="6.178" y2="57.502" transform="translate(332.696 349.689)"/>
    </g>
    <g id="Сгруппировать_10" data-name="Сгруппировать 10">
      <rect id="Прямоугольник_14" data-name="Прямоугольник 14" class="cls-17" width="14.92" height="106.499" transform="translate(352.153 340.736)"/>
      <rect id="Прямоугольник_15" data-name="Прямоугольник 15" class="cls-8" width="14.92" height="83.069" transform="translate(352.153 352.452)"/>
    </g>
    <g id="Сгруппировать_14" data-name="Сгруппировать 14">
      <path id="Контур_4" data-name="Контур 4" class="cls-18" d="M796.967,200a51.363,51.363,0,1,1,90.9,32.759v-8.246c0-2.956-22.237-7.808-23.638-7.808l-4.248-.154c.006-.071.012-.141.016-.21.152-2.134.307-4.336.46-5.546,2.243-1.505,3.771-3.615,3.913-5.409q.331-2.793.655-5.588a2.3,2.3,0,0,0,.684.177,2.41,2.41,0,0,0,2.656-2.156l1.031-9.964a2.377,2.377,0,0,0-.522-1.766,2.4,2.4,0,0,0-1.63-.881,2.245,2.245,0,0,0-.522,0c.191-1.627.38-3.247.563-4.894.017-.261.046-.564.08-.907.291-3.028.9-9.328-3.786-13.506-3.5-3.435-9.326-5.485-15.585-5.485s-12.088,2.05-15.568,5.467c-4.693,4.19-4.092,10.485-3.8,13.509.032.349.062.659.083.948l.116,1q.224,1.936.447,3.868a2.461,2.461,0,0,0-.516,0,2.412,2.412,0,0,0-2.157,2.646l1.031,9.967a2.409,2.409,0,0,0,2.652,2.156,2.232,2.232,0,0,0,.682-.177c.219,1.863.436,3.725.654,5.571.161,1.818,1.691,3.928,3.925,5.426.152,1.22.307,3.447.46,5.6l.017.238-1.853.068c-1.417,0-23.654,4.852-23.654,7.808v10.207A51.1,51.1,0,0,1,796.967,200Z"/>
      <path id="Контур_5" data-name="Контур 5" class="cls-19" d="M843.828,213.686l-7.822-3.91-.007.017c-1.866-1.3-3.184-3.075-3.312-4.534q-.381-3.234-.758-6.471l-.133-1.142-.79.835a1.331,1.331,0,0,1-2.305-.772l-1.032-9.97a1.331,1.331,0,0,1,1.2-1.462,1.283,1.283,0,0,1,.6.09l2.052,6.574,1.051-.156v-17.95a3.073,3.073,0,0,1,2.919-3.066l11.347,7.425.819-.571-1.018-4.406,11.627,2.252.6-.323,1.811-4.361a3.073,3.073,0,0,1,2.72,3.05v17.95l1.051.161,2.089-6.579a1.214,1.214,0,0,1,.6-.088,1.32,1.32,0,0,1,.908.487,1.3,1.3,0,0,1,.289.974L867.3,197.71a1.335,1.335,0,0,1-2.314.768l-.794-.829-.129,1.139c-.248,2.159-.5,4.315-.758,6.491-.122,1.524-1.583,3.432-3.635,4.749l-.209.133-.035.242c-.165,1.178-.333,3.558-.5,5.861s-.333,4.68-.48,5.751c-.1.349-2.614,8.525-11.363,8.525-7.077,0-9.517-8.432-9.526-8.448-.158-1.139-.325-3.495-.483-5.768-.131-1.837-.263-3.712-.393-5.009l6.893,3.445h9.143v-1.075Z"/>
      <path id="Контур_6" data-name="Контур 6" class="cls-20" d="M866.3,179.305c-.033.352-.065.666-.081.913-.187,1.694-.384,3.38-.584,5.077l-.065.555-1.1,3.46V174.834a4.152,4.152,0,0,0-4.15-4.145l-.5.332-1.788,4.307L846.024,173l-.625.648.9,3.911-10.367-6.787-.294-.087a4.151,4.151,0,0,0-4.15,4.145v14.419l-1.061-3.4c-.175-1.553-.355-3.092-.535-4.639l-.113-.974c-.019-.271-.049-.591-.084-.949-.293-3.069-.838-8.78,3.47-12.624,3.3-3.24,8.844-5.175,14.831-5.175s11.528,1.936,14.85,5.193C867.142,170.519,866.592,176.237,866.3,179.305Z"/>
      <path id="Контур_7" data-name="Контур 7" class="cls-21" d="M848.329,251.323a51.212,51.212,0,0,1-36.744-15.478l-.009-11.278c.744-1.673,19.883-6.787,22.61-6.787l1.907-.071c.135,1.889.268,3.586.413,4.6.025.091,2.677,9.3,10.577,9.3,9.565,0,12.369-9.206,12.411-9.373.139-.965.275-2.741.412-4.62l4.308.158c2.707,0,21.846,5.113,22.579,6.731V234A51.239,51.239,0,0,1,848.329,251.323Z"/>
      <g id="Сгруппировать_13" data-name="Сгруппировать 13">
        <g id="Сгруппировать_11" data-name="Сгруппировать 11">
          <path id="Контур_8" data-name="Контур 8" class="cls-22" d="M848.329,148.96a51.327,51.327,0,1,1-51.361,51.329,51.346,51.346,0,0,1,51.361-51.329m0-4.347a55.674,55.674,0,1,0,55.714,55.676,55.756,55.756,0,0,0-55.714-55.676Z"/>
        </g>
        <g id="Сгруппировать_12" data-name="Сгруппировать 12">
          <path id="Контур_9" data-name="Контур 9" class="cls-5" d="M887.331,236.445V224.8c0-2.121-20.969-7.268-23.117-7.268l-4.721-.174"/>
          <path id="Контур_10" data-name="Контур 10" class="cls-5" d="M836.627,217.441l-2.462.093c-2.147,0-23.116,5.146-23.116,7.268v13.524"/>
          <path id="Контур_11" data-name="Контур 11" class="cls-14" d="M832.028,193.073V175.124a3.607,3.607,0,0,1,3.612-3.606l11.488,7.515-1.2-5.209,12.439,2.407,1.956-4.713a3.608,3.608,0,0,1,3.612,3.606v17.949"/>
          <path id="Контур_12" data-name="Контур 12" class="cls-14" d="M858.963,222.456c.331-2.323.667-9.364.995-11.685,2.175-1.4,3.744-3.444,3.88-5.158q.385-3.236.755-6.472a1.876,1.876,0,0,0,3.239-1.085l1.032-9.968a1.871,1.871,0,0,0-1.676-2.056,1.839,1.839,0,0,0-1.093.223c.222-1.9.445-3.789.655-5.687.181-2.6,1.463-9.523-3.546-13.992-7.242-7.108-23.175-7.108-30.416,0-5.007,4.468-3.72,11.392-3.545,13.992.22,1.9.441,3.784.657,5.687a1.816,1.816,0,0,0-1.09-.223,1.877,1.877,0,0,0-1.678,2.056l1.034,9.968a1.868,1.868,0,0,0,3.229,1.085q.374,3.24.758,6.472c.149,1.714,1.715,3.763,3.89,5.158.326,2.321.658,9.357.98,11.685,0,0,2.479,8.913,10.061,8.913C856.356,231.369,858.963,222.456,858.963,222.456Z"/>
          <path id="Контур_13" data-name="Контур 13" class="cls-14" d="M852.718,214.512H843.7l-7.936-3.965"/>
        </g>
      </g>
    </g>
    <g id="Сгруппировать_17" data-name="Сгруппировать 17">
      <path id="Контур_14" data-name="Контур 14" class="cls-18" d="M848.333,295.028a50.663,50.663,0,0,1,50.622,50.59q0,1.3-.065,2.57c-.007.143-.022.283-.032.423-.042.722-.091,1.439-.164,2.152-.006.067-.017.13-.025.2a50.262,50.262,0,0,1-8.337,22.868c-.11.164-.226.319-.338.482-.331.477-.663.946-1.006,1.413q-.594.789-1.219,1.562c-.074.091-.142.183-.215.274q-1.573,1.915-3.346,3.7c-.895-2.753-3.245-5.309-6.829-7.485l-5.863-38.978h0c-.117-.772-.235-1.546-.351-2.33-2.537-14.213-13.406-21.651-22.832-21.651a19.614,19.614,0,0,0-5.391.78,22.373,22.373,0,0,0-2.8,1.04c-.467.209-.928.43-1.388.672a24.717,24.717,0,0,0-9.949,9.784,29.662,29.662,0,0,0-3.315,9.389l-6.207,41.29c-3.586,2.179-5.933,4.741-6.826,7.5q-1.775-1.778-3.345-3.7c-.085-.1-.164-.213-.249-.319-.407-.5-.809-1.011-1.193-1.529-.326-.438-.639-.887-.951-1.337-.133-.19-.271-.377-.4-.568A50.257,50.257,0,0,1,798,351c-.007-.081-.02-.162-.029-.242-.07-.706-.122-1.418-.162-2.131-.009-.146-.025-.291-.032-.439q-.065-1.276-.065-2.57A50.665,50.665,0,0,1,848.333,295.028Z"/>
      <path id="Контур_15" data-name="Контур 15" class="cls-21" d="M874.774,372.366c-.171-.083-.345-.165-.521-.246q-.661-.309-1.361-.6c-.148-.062-.3-.122-.449-.183-.318-.127-.638-.256-.967-.381h0a.567.567,0,0,0-.086-.039l-.113-.042c-.316-.116-.639-.232-1-.361-.064-.017-.128-.042-.19-.062l-.422-.143c-.347-.113-.695-.227-1.044-.33l-.055-.016-.093-.03c-.062-.019-.128-.035-.188-.054l-.319-.1-.319-.088c-.18-.052-.357-.107-.536-.156l-.2-.054-.068-.017c-.022-.007-.039-.012-.064-.017s-.042-.01-.061-.014c-.348-.094-.7-.184-1.05-.272l-.367-.091c-.071-.016-.146-.028-.219-.043q-1.34-.322-2.732-.587l-.587-.1c-.808-.149-1.63-.283-2.458-.4-.136-.019-.265-.045-.4-.065a12.383,12.383,0,0,0,.087-1.465v-8.025a16.586,16.586,0,0,0,5.981-12.75V334.875a.535.535,0,0,0-.384-.509v-.029H826.306c.083-.565.168-1.132.251-1.684,2.436-13.632,12.8-20.764,21.776-20.764a18.947,18.947,0,0,1,6.847,1.327c6.816,2.644,13.1,9.208,14.924,19.421l6.084,40.444c-.057-.033-.122-.061-.18-.091C875.61,372.779,875.2,372.571,874.774,372.366Z"/>
      <path id="Контур_16" data-name="Контур 16" class="cls-23" d="M826.206,370.583c-.106.038-.206.078-.312.114-.223.08-.458.156-.679.239l-.032.01c-.175.068-.342.136-.518.206l-.013.006c-.461.18-.911.364-1.347.556-.07.028-.136.057-.2.087q-.607.267-1.185.546c-.054.026-.11.051-.165.078-.436.213-.863.432-1.272.653l5.662-37.668H831.7v10.217a16.591,16.591,0,0,0,5.975,12.747V366.4a13.678,13.678,0,0,0,.09,1.465c-.157.022-.3.052-.46.075-.784.116-1.562.239-2.324.378-.261.046-.522.094-.779.142-.942.181-1.87.375-2.772.593l-.043.007v0c-.071.016-.138.036-.209.055-.471.113-.94.227-1.435.362l-.157.046c-.074.02-.149.036-.223.059h0c-.148.041-.283.086-.426.129-.242.068-.484.135-.723.2l-.112.038c-.09.029-.178.061-.307.093l-.26.088c-.322.1-.634.207-.944.314Z"/>
      <path id="Контур_17" data-name="Контур 17" class="cls-19" d="M855.779,359.277c-.061.033-.123.062-.184.094-.367.194-.742.378-1.127.542-.087.039-.175.071-.265.107-.361.148-.726.284-1.1.406-.107.033-.216.067-.325.1q-.537.161-1.089.28c-.126.029-.251.056-.377.081-.362.072-.732.125-1.1.17-.128.014-.252.036-.378.048-.493.048-.99.077-1.493.077s-.973-.029-1.451-.074c-.2-.019-.4-.051-.6-.077-.27-.038-.539-.074-.8-.123-.242-.045-.48-.1-.719-.158-.217-.049-.431-.1-.642-.167-.252-.068-.5-.145-.748-.227-.2-.067-.4-.143-.6-.22-.236-.09-.473-.178-.706-.284s-.449-.212-.671-.323c-.191-.094-.383-.183-.568-.287a15.554,15.554,0,0,1-8.053-13.611V335.411h31.119v10.217A15.561,15.561,0,0,1,855.779,359.277Z"/>
      <path id="Контур_18" data-name="Контур 18" class="cls-19" d="M826.49,371.626c.126-.043.254-.087.378-.132l1.061-.356c.4-.128.816-.248,1.231-.368.21-.058.416-.119.628-.177l.075-.023c.6-.164,1.211-.325,1.834-.472.909-.217,1.849-.41,2.8-.593q.5-.093,1.016-.183c.694-.122,1.4-.23,2.112-.332.27-.039.538-.083.813-.119.036,0,.061-.03.094-.042a.523.523,0,0,0,.119-.054.431.431,0,0,0,.094-.083.527.527,0,0,0,.043-.036c.017-.025.025-.056.041-.084s.035-.041.044-.064,0-.022,0-.03a.523.523,0,0,0,.019-.222,13.64,13.64,0,0,1-.148-1.853v-7.189c.062.042.129.08.193.123.112.077.226.146.344.22q.429.283.877.536c.168.094.333.185.508.275.257.133.519.256.781.375.191.09.384.181.58.262.336.138.679.258,1.019.374.281.093.564.177.851.255s.544.151.822.212c.212.048.425.088.642.126.3.057.609.1.913.141.184.023.365.046.548.064.5.046,1,.077,1.506.077.523,0,1.04-.032,1.554-.08.129-.012.255-.029.383-.043.413-.046.822-.11,1.227-.188.1-.019.2-.036.3-.058a16.218,16.218,0,0,0,2.98-.93l.094-.043c.422-.18.837-.381,1.243-.6.1-.055.2-.107.3-.164.338-.19.668-.391.995-.606.109-.07.217-.138.323-.209.059-.042.122-.077.181-.12V366.4a12.663,12.663,0,0,1-.146,1.849.256.256,0,0,0,0,.046c0,.014-.007.026-.007.039a.432.432,0,0,0,.013.075.532.532,0,0,0,.012.071.605.605,0,0,0,.077.156l.007.013,0,0a.536.536,0,0,0,.355.213c.222.028.439.067.658.1.758.107,1.511.223,2.256.353q.468.08.931.167c.928.177,1.846.368,2.745.58.567.135,1.132.274,1.691.422a.584.584,0,0,0,.077.02c.075.022.148.041.245.071.171.046.339.1.51.143.22.062.444.126.663.191l.254.075.026.009c.058.02.117.039.154.048.783.243,1.538.5,2.269.766-1.024,7.973-10.738,14.164-22.371,14.164s-21.341-6.182-22.375-14.153C826.135,371.758,826.309,371.688,826.49,371.626Z"/>
      <path id="Контур_19" data-name="Контур 19" class="cls-24" d="M813.346,382.129c.687-2.805,3.167-5.507,7.055-7.762.054-.03.109-.058.162-.09.452-.258.925-.506,1.412-.752.291-.148.583-.293.886-.432.146-.07.294-.136.441-.2.525-.235,1.064-.462,1.622-.682,1.27,8.38,11.363,14.844,23.409,14.844s22.127-6.459,23.4-14.834c.254.1.513.2.76.3.209.088.42.174.623.265.434.19.85.387,1.26.587.262.127.525.258.777.388.309.161.6.325.9.491,4.01,2.276,6.572,5.015,7.276,7.867a50.51,50.51,0,0,1-69.981.009Z"/>
      <g id="Сгруппировать_16" data-name="Сгруппировать 16">
        <path id="Контур_20" data-name="Контур 20" class="cls-25" d="M848.333,294.243a51.086,51.086,0,0,0-35.588,87.812c.88-4.351,5.6-8.2,12.629-10.852.761,8.4,10.747,15.065,22.959,15.065s22.189-6.653,22.952-15.058c-.065-.029-.126-.051-.194-.078-.319-.117-.644-.232-.967-.348-.112-.032-.22-.074-.332-.113-.438-.143-.88-.294-1.332-.427l-.355-.107c-.37-.106-.754-.22-1.137-.323-.1-.033-.206-.061-.32-.088a63.794,63.794,0,0,0-8.35-1.634v-.006a63.776,63.776,0,0,1,8.35,1.64c.115.028.217.055.32.088.383.1.767.217,1.137.323l.355.107c.452.133.895.284,1.332.427.112.039.22.081.332.113.323.116.648.23.967.348.064.025.135.048.194.071v.007c7.028,2.646,11.756,6.488,12.64,10.833a51.083,51.083,0,0,0-35.592-87.8ZM825.377,371.2a58.879,58.879,0,0,1,12.985-3.118l.007.006A58.474,58.474,0,0,0,825.377,371.2Z"/>
        <path id="Контур_21" data-name="Контур 21" class="cls-25" d="M826.825,370.684c.373-.123.75-.243,1.128-.365.141-.035.271-.083.407-.126.423-.126.853-.245,1.283-.364l.278-.085c.477-.128.966-.249,1.46-.367.045-.014.086-.026.126-.036a66.4,66.4,0,0,1,6.854-1.256,14.22,14.22,0,0,1-.152-1.928v-8.269a16.092,16.092,0,0,0,20.239,0v8.269a13.344,13.344,0,0,1-.152,1.928,66.4,66.4,0,0,1,6.874,1.261.355.355,0,0,0,.075.017c.51.129,1.019.254,1.515.39.067.02.128.036.193.055.461.123.918.259,1.361.393.1.026.186.062.278.085a38.882,38.882,0,0,1,8.289,3.564q-3.127-20.768-6.249-41.538c-2.34-13.112-12.345-21.207-22.3-21.207s-19.962,8.095-22.305,21.207q-3.121,20.77-6.245,41.538a36.153,36.153,0,0,1,6.6-3C826.533,370.791,826.677,370.739,826.825,370.684Z"/>
        <g id="Сгруппировать_15" data-name="Сгруппировать 15">
          <path id="Контур_22" data-name="Контур 22" class="cls-25" d="M848.333,396.5a51.127,51.127,0,1,1,51.16-51.128,51.2,51.2,0,0,1-51.16,51.128Z"/>
        </g>
        <path id="Контур_23" data-name="Контур 23" class="cls-25" d="M870.985,334.627c-.119-.772-.236-1.547-.351-2.315-2.34-13.112-12.345-21.207-22.3-21.207s-19.962,8.095-22.305,21.207c-.117.768-.231,1.543-.344,2.315h38.9"/>
        <path id="Контур_24" data-name="Контур 24" class="cls-25" d="M832.235,334.627v10.754a16.1,16.1,0,0,0,32.2,0V334.627Z"/>
      </g>
    </g>
    <g id="Сгруппировать_21" data-name="Сгруппировать 21">
      <path id="Контур_25" data-name="Контур 25" class="cls-24" d="M271.862,200.068a51.364,51.364,0,1,1,92.751,30.39c-.8-.317-1.857-.733-3.078-1.214-4.574-1.8-11.128-4.384-14.414-5.788l.017-.264-5.442-3.019-6.774-2.757c.144-2.007.289-4.015.431-5.148,2.243-1.507,3.773-3.616,3.913-5.41.225-1.863.442-3.722.657-5.591a2.32,2.32,0,0,0,.687.183,2.412,2.412,0,0,0,2.653-2.16l1.032-9.962a2.411,2.411,0,0,0-2.155-2.649,2.512,2.512,0,0,0-.522,0c.193-1.627.381-3.247.564-4.891.019-.265.048-.571.081-.916.29-3.027.893-9.325-3.786-13.5-3.5-3.434-9.327-5.484-15.588-5.484s-12.086,2.05-15.565,5.467c-4.69,4.187-4.093,10.481-3.806,13.5.033.349.062.661.083.952l.159,1.375q.207,1.743.406,3.493a2.486,2.486,0,0,0-.519,0,2.421,2.421,0,0,0-2.157,2.649l1.032,9.96a2.416,2.416,0,0,0,2.655,2.163,2.314,2.314,0,0,0,.68-.18q.309,2.673.625,5.338l.028.233c.159,1.821,1.692,3.926,3.926,5.427.136,1.1.275,3,.413,4.948l-7.331,2.985-5.23,2.908c-5.175,1.589-11.609,3.819-17.573,5.777A51.065,51.065,0,0,1,271.862,200.068Z"/>
      <path id="Контур_26" data-name="Контур 26" class="cls-19" d="M318.724,215.158l-7.824-3.909-.007.016c-1.866-1.3-3.183-3.076-3.312-4.534l-.029-.251q-.368-3.106-.726-6.22l-.132-1.143-.793.835a1.351,1.351,0,0,1-.832.427,1.334,1.334,0,0,1-1.473-1.2l-1.032-9.965a1.34,1.34,0,0,1,1.2-1.466,1.3,1.3,0,0,1,.767.155l.725.41a5.847,5.847,0,0,0-.126,1.033c-.022.5-.041.99-.052,1.476a5.93,5.93,0,0,0,1.635,4.363,6.63,6.63,0,0,0,4.711,2.06h.016l2.529-.03a6.478,6.478,0,0,0,6.3-5.465h5.959a6.009,6.009,0,0,0,1.617,3.45,6.543,6.543,0,0,0,4.695,2.046h.016l2.534-.03a6.923,6.923,0,0,0,4.788-2.205,5.7,5.7,0,0,0,1.538-4.113c-.012-.475-.023-.955-.045-1.42a6.92,6.92,0,0,0-.136-1.068.523.523,0,0,0-.261-.351l.275-.151a1.3,1.3,0,0,1,.782-.159,1.334,1.334,0,0,1,.908.491,1.311,1.311,0,0,1,.29.975l-1.034,9.965a1.34,1.34,0,0,1-1.34,1.208,1.266,1.266,0,0,1-.132-.007,1.375,1.375,0,0,1-.842-.432l-.793-.824-.13,1.136c-.246,2.162-.5,4.313-.758,6.491-.122,1.521-1.582,3.429-3.633,4.748l-.207.133-.035.245c-.168,1.181-.338,3.574-.5,5.891-.152,2.149-.309,4.368-.461,5.575l-11.348,8.515-9.582-8.492c-.149-1.2-.3-3.419-.455-5.574-.129-1.834-.262-3.706-.393-5l6.893,3.443h9.145v-1.075Z"/>
      <path id="Контур_27" data-name="Контур 27" class="cls-19" d="M326.738,187.835a.539.539,0,0,0-.355.41,8.1,8.1,0,0,0-.142,1.111c-.01.438-.029.877-.049,1.318h-5.9l-.042-1.2a7.142,7.142,0,0,0-.145-1.068.535.535,0,0,0-.345-.406,21.37,21.37,0,0,0-12.3-.694v-11a3.076,3.076,0,0,1,3.074-3.072h24.677a3.076,3.076,0,0,1,3.074,3.072v10.949A21.262,21.262,0,0,0,326.738,187.835Z"/>
      <path id="Контур_28" data-name="Контур 28" class="cls-18" d="M319.106,188.907a4.314,4.314,0,0,1,.074.6l.048,1.426c.123,2.722-2.26,5.058-5.291,5.206l-2.5.029a5.544,5.544,0,0,1-3.935-1.718,4.869,4.869,0,0,1-1.347-3.589c.012-.494.032-.979.052-1.482a4.5,4.5,0,0,1,.062-.624A20.254,20.254,0,0,1,319.106,188.907Z"/>
      <path id="Контур_29" data-name="Контур 29" class="cls-18" d="M327.316,189.4a6.021,6.021,0,0,1,.068-.643,20.293,20.293,0,0,1,12.843.154,4.584,4.584,0,0,1,.067.609c.02.468.033.939.043,1.421a4.629,4.629,0,0,1-1.26,3.35,5.825,5.825,0,0,1-4.021,1.855l-2.51.029a5.464,5.464,0,0,1-3.922-1.708,4.9,4.9,0,0,1-1.366-3.586Q327.3,190.123,327.316,189.4Z"/>
      <path id="Контур_30" data-name="Контур 30" class="cls-26" d="M340.456,187.373l-.057.472c-.344-.116-.689-.227-1.035-.327v-11.21a4.154,4.154,0,0,0-4.151-4.147H310.535a4.153,4.153,0,0,0-4.15,4.147v11.3c-.254.077-.513.141-.764.225a.58.58,0,0,0-.223.148l-.068-.607c-.162-1.445-.331-2.877-.5-4.313l-.158-1.349c-.019-.274-.049-.594-.084-.953-.29-3.067-.832-8.779,3.471-12.62,3.3-3.243,8.846-5.177,14.83-5.177s11.53,1.934,14.853,5.193c4.29,3.831,3.744,9.545,3.449,12.615-.035.355-.065.671-.08.92C340.9,183.587,340.68,185.47,340.456,187.373Z"/>
      <path id="Контур_31" data-name="Контур 31" class="cls-23" d="M281.372,229.8c5.717-1.879,11.833-3.993,16.841-5.542l1.293,18.327,4.347,1.394-1.06,3.183A51.509,51.509,0,0,1,281.372,229.8Z"/>
      <path id="Контур_32" data-name="Контур 32" class="cls-23" d="M303.787,247.579l1.43-4.29-4.689-1.507L299.259,223.8l4.727-2.633,6.153-2.5.028.175-5.785,3.692,11.382,28.317A51.057,51.057,0,0,1,303.787,247.579Z"/>
      <path id="Контур_33" data-name="Контур 33" class="cls-18" d="M316.984,251l-11.272-28.044,5.3-3.386c.125,1.729.246,3.247.37,4.138l.028.2,10.536,9.337,12.411-9.309.03-.222c.117-.83.236-2.256.352-3.831l4.821,3.076-11.328,28.188c-1.65.161-3.322.246-5.014.246A52.169,52.169,0,0,1,316.984,251Z"/>
      <path id="Контур_34" data-name="Контур 34" class="cls-23" d="M340.9,222.531l-5.785-3.69.028-.177,6.094,2.476,4.786,2.66-1.263,18.963-4.743.394,1.611,4.831A51,51,0,0,1,329.454,251Z"/>
      <path id="Контур_35" data-name="Контур 35" class="cls-23" d="M342.626,247.594l-1.16-3.48,4.3-.358,1.279-19.2c2.69,1.21,9.02,3.693,14.092,5.69,1.087.429,2.036.8,2.8,1.105A51.508,51.508,0,0,1,342.626,247.594Z"/>
      <g id="Сгруппировать_20" data-name="Сгруппировать 20">
        <path id="Контур_36" data-name="Контур 36" class="cls-22" d="M323.223,148.672A51.327,51.327,0,1,1,271.862,200a51.347,51.347,0,0,1,51.362-51.328m0-4.347A55.674,55.674,0,1,0,378.94,200a55.756,55.756,0,0,0-55.717-55.674Z"/>
        <g id="Сгруппировать_19" data-name="Сгруппировать 19">
          <path id="Контур_37" data-name="Контур 37" class="cls-5" d="M279.842,229.67q8.508-2.769,17.776-5.609"/>
          <path id="Контур_38" data-name="Контур 38" class="cls-5" d="M316.926,252.233l-11.878-29.557,5.706-3.64-.188-1.193-6.783,2.76-5.084,2.826,1.319,18.687,4.518,1.452-1.693,5.083"/>
          <path id="Контур_39" data-name="Контур 39" class="cls-5" d="M365.037,231.139c-3.587-1.434-16.5-6.452-19.545-7.883"/>
          <path id="Контур_40" data-name="Контур 40" class="cls-5" d="M328.353,252.234l11.878-29.558-5.707-3.639.189-1.192,6.781,2.759,5.085,2.826-1.318,19.761-4.522.378,1.695,5.083"/>
          <path id="Контур_41" data-name="Контур 41" class="cls-27" d="M333.86,223.57c.328-2.324.664-9.363.993-11.685,2.175-1.4,3.744-3.447,3.88-5.159.258-2.156.51-4.307.757-6.472a1.87,1.87,0,0,0,3.238-1.087l1.032-9.965a1.875,1.875,0,0,0-2.771-1.833c.225-1.9.447-3.787.658-5.685.178-2.6,1.463-9.525-3.545-13.995-7.245-7.107-23.178-7.107-30.418,0-5.008,4.47-3.72,11.392-3.546,13.995.22,1.9.442,3.782.657,5.685a1.84,1.84,0,0,0-1.09-.223,1.876,1.876,0,0,0-1.676,2.056l1.031,9.965a1.866,1.866,0,0,0,3.232,1.087c.248,2.165.5,4.316.757,6.472.151,1.713,1.715,3.763,3.892,5.159.326,2.323.657,9.357.98,11.685l10.059,8.913Z"/>
          <g id="Сгруппировать_18" data-name="Сгруппировать 18">
            <path id="Контур_42" data-name="Контур 42" class="cls-25" d="M305.794,188.277a5.772,5.772,0,0,0-.129,1.024c-.02.494-.039.982-.052,1.479a5.763,5.763,0,0,0,5.818,5.859q1.266-.02,2.511-.029c3.345-.162,5.956-2.779,5.823-5.769-.013-.471-.033-.948-.049-1.418a6.673,6.673,0,0,0-.136-.985A20.715,20.715,0,0,0,305.794,188.277Z"/>
            <path id="Контур_43" data-name="Контур 43" class="cls-25" d="M326.911,188.277a7.564,7.564,0,0,0-.132,1.024c-.012.494-.032.982-.055,1.479a5.777,5.777,0,0,0,5.823,5.859c.841-.013,1.683-.023,2.517-.029,3.336-.154,5.961-2.779,5.813-5.769-.01-.471-.023-.948-.045-1.418a6.553,6.553,0,0,0-.128-.985A20.737,20.737,0,0,0,326.911,188.277Z"/>
            <line id="Линия_18" data-name="Линия 18" class="cls-28" x2="6.213" transform="translate(320.534 191.145)"/>
          </g>
          <path id="Контур_44" data-name="Контур 44" class="cls-27" d="M304.725,186.768h1.446V176.241a3.612,3.612,0,0,1,3.61-3.611h25.584a3.611,3.611,0,0,1,3.61,3.611v10.528h2.085c.2-1.7.4-3.389.587-5.086.178-2.6,1.463-9.525-3.545-13.995-7.245-7.107-23.178-7.107-30.418,0-5.008,4.47-3.72,11.392-3.546,13.995C304.335,183.38,304.533,185.068,304.725,186.768Z"/>
          <path id="Контур_45" data-name="Контур 45" class="cls-14" d="M306.925,187.368V176.241a3.611,3.611,0,0,1,3.61-3.611h24.677a3.612,3.612,0,0,1,3.613,3.611v11.127"/>
          <path id="Контур_46" data-name="Контур 46" class="cls-14" d="M333.86,223.57c.328-2.324.664-9.363.993-11.685,2.175-1.4,3.744-3.447,3.88-5.159.258-2.156.51-4.307.757-6.472a1.87,1.87,0,0,0,3.238-1.087l1.032-9.965a1.875,1.875,0,0,0-2.771-1.833c.225-1.9.447-3.787.658-5.685.178-2.6,1.463-9.525-3.545-13.995-7.245-7.107-23.178-7.107-30.418,0-5.008,4.47-3.72,11.392-3.546,13.995.22,1.9.442,3.782.657,5.685a1.84,1.84,0,0,0-1.09-.223,1.876,1.876,0,0,0-1.676,2.056l1.031,9.965a1.866,1.866,0,0,0,3.232,1.087c.248,2.165.5,4.316.757,6.472.151,1.713,1.715,3.763,3.892,5.159.326,2.323.657,9.357.98,11.685l10.059,8.913Z"/>
          <path id="Контур_47" data-name="Контур 47" class="cls-14" d="M327.615,215.629H318.6l-7.937-3.965"/>
        </g>
      </g>
    </g>
    <g id="Сгруппировать_22" data-name="Сгруппировать 22">
      <rect id="Прямоугольник_16" data-name="Прямоугольник 16" class="cls-29" width="141.366" height="70.044" transform="translate(577.847 197.463)"/>
      <rect id="Прямоугольник_17" data-name="Прямоугольник 17" class="cls-30" width="141.318" height="15.461" transform="translate(577.847 266.593)"/>
      <path id="Контур_48" data-name="Контур 48" class="cls-31" d="M656.049,233.17l-7.422,4.279-7.419,4.282V224.6l7.419,4.283Z"/>
      <line id="Линия_19" data-name="Линия 19" class="cls-15" x2="105.891" transform="translate(592.243 274.324)"/>
      <line id="Линия_20" data-name="Линия 20" class="cls-15" x2="4.825" transform="translate(701.16 274.324)"/>
      <line id="Линия_21" data-name="Линия 21" class="cls-15" x2="4.333" transform="translate(709.307 274.324)"/>
      <line id="Линия_22" data-name="Линия 22" class="cls-15" x2="4.333" transform="translate(583.338 274.324)"/>
    </g>
    <path id="Контур_49" data-name="Контур 49" class="cls-11" d="M305.723,119.835l-7.424,4.283-7.423,4.283V111.27l7.423,4.282Z"/>
    <line id="Линия_23" data-name="Линия 23" class="cls-15" x2="316.08" transform="translate(424.441 178.502)"/>
    <line id="Линия_24" data-name="Линия 24" class="cls-15" x2="4.35" transform="translate(428.246 171.952)"/>
    <line id="Линия_25" data-name="Линия 25" class="cls-15" x2="4.35" transform="translate(435.36 171.952)"/>
    <line id="Линия_26" data-name="Линия 26" class="cls-15" x2="4.35" transform="translate(442.474 171.952)"/>
    <g id="Сгруппировать_23" data-name="Сгруппировать 23">
      <rect id="Прямоугольник_18" data-name="Прямоугольник 18" class="cls-14" width="76.845" height="13.522" transform="translate(440.873 197.463)"/>
      <rect id="Прямоугольник_19" data-name="Прямоугольник 19" class="cls-29" width="32.623" height="13.522" transform="translate(440.873 272.804)"/>
      <rect id="Прямоугольник_20" data-name="Прямоугольник 20" class="cls-32" width="32.623" height="13.522" transform="translate(482.92 272.804)"/>
      <line id="Линия_27" data-name="Линия 27" class="cls-15" x2="123.242" transform="translate(438.638 222.752)"/>
      <line id="Линия_28" data-name="Линия 28" class="cls-15" x2="123.242" transform="translate(438.638 232.413)"/>
      <line id="Линия_29" data-name="Линия 29" class="cls-15" x2="123.242" transform="translate(438.638 242.071)"/>
      <line id="Линия_30" data-name="Линия 30" class="cls-15" x2="123.242" transform="translate(438.638 251.73)"/>
      <line id="Линия_31" data-name="Линия 31" class="cls-15" x2="81.98" transform="translate(438.638 261.39)"/>
    </g>
    <rect id="Прямоугольник_21" data-name="Прямоугольник 21" class="cls-10" width="40.083" height="23.182" transform="translate(577.847 291.996)"/>
    <rect id="Прямоугольник_22" data-name="Прямоугольник 22" class="cls-10" width="40.083" height="23.182" transform="translate(628.428 291.996)"/>
    <rect id="Прямоугольник_23" data-name="Прямоугольник 23" class="cls-10" width="40.083" height="23.182" transform="translate(679.01 291.996)"/>
    <path id="Контур_50" data-name="Контур 50" class="cls-14" d="M325.845,145.661V102.194H647.725v88.381"/>
    <path id="Контур_51" data-name="Контур 51" class="cls-14" d="M852.643,253.843V266.4H726.985"/>
    <path id="Контур_52" data-name="Контур 52" class="cls-14" d="M852.643,294.411V281.855H726.985"/>
    <g id="Сгруппировать_24" data-name="Сгруппировать 24">
      <rect id="Прямоугольник_24" data-name="Прямоугольник 24" class="cls-33" width="102.453" height="78.494" transform="translate(204.09 368.742)"/>
      <rect id="Прямоугольник_25" data-name="Прямоугольник 25" class="cls-21" width="102.453" height="20.778" transform="translate(204.09 368.742)"/>
      <line id="Линия_32" data-name="Линия 32" class="cls-34" x2="102.453" transform="translate(204.09 389.218)"/>
      <path id="Контур_53" data-name="Контур 53" class="cls-22" d="M228,399.457h-6.832v6.822H228v-6.822Z"/>
      <path id="Контур_54" data-name="Контур 54" class="cls-22" d="M238.242,399.457H231.41v6.822h6.832v-6.822Z"/>
      <path id="Контур_55" data-name="Контур 55" class="cls-22" d="M248.486,399.457h-6.83v6.822h6.83v-6.822Z"/>
      <path id="Контур_56" data-name="Контур 56" class="cls-22" d="M258.733,399.457H251.9v6.822h6.832v-6.822Z"/>
      <path id="Контур_57" data-name="Контур 57" class="cls-22" d="M268.977,399.457h-6.829v6.822h6.829v-6.822Z"/>
      <path id="Контур_58" data-name="Контур 58" class="cls-22" d="M279.223,399.457h-6.832v6.822h6.832v-6.822Z"/>
      <path id="Контур_59" data-name="Контур 59" class="cls-22" d="M289.469,399.457h-6.831v6.822h6.831v-6.822Z"/>
      <path id="Контур_60" data-name="Контур 60" class="cls-22" d="M228,409.693h-6.832v6.826H228v-6.826Z"/>
      <path id="Контур_61" data-name="Контур 61" class="cls-22" d="M238.242,409.693H231.41v6.826h6.832v-6.826Z"/>
      <path id="Контур_62" data-name="Контур 62" class="cls-22" d="M248.486,409.693h-6.83v6.826h6.83v-6.826Z"/>
      <path id="Контур_63" data-name="Контур 63" class="cls-22" d="M258.733,409.693H251.9v6.826h6.832v-6.826Z"/>
      <path id="Контур_64" data-name="Контур 64" class="cls-22" d="M268.977,409.693h-6.829v6.826h6.829v-6.826Z"/>
      <path id="Контур_65" data-name="Контур 65" class="cls-22" d="M279.223,409.693h-6.832v6.826h6.832v-6.826Z"/>
      <path id="Контур_66" data-name="Контур 66" class="cls-22" d="M289.469,409.693h-6.831v6.826h6.831v-6.826Z"/>
      <path id="Контур_67" data-name="Контур 67" class="cls-22" d="M228,419.933h-6.832v6.826H228v-6.826Z"/>
      <path id="Контур_68" data-name="Контур 68" class="cls-22" d="M238.242,419.933H231.41v6.826h6.832v-6.826Z"/>
      <path id="Контур_69" data-name="Контур 69" class="cls-22" d="M248.486,419.933h-6.83v6.826h6.83v-6.826Z"/>
      <path id="Контур_70" data-name="Контур 70" class="cls-22" d="M258.733,419.933H251.9v6.826h6.832v-6.826Z"/>
      <path id="Контур_71" data-name="Контур 71" class="cls-22" d="M268.977,419.933h-6.829v6.826h6.829v-6.826Z"/>
      <path id="Контур_72" data-name="Контур 72" class="cls-22" d="M279.223,419.933h-6.832v6.826h6.832v-6.826Z"/>
      <path id="Контур_73" data-name="Контур 73" class="cls-22" d="M289.469,419.933h-6.831v6.826h6.831v-6.826Z"/>
      <path id="Контур_74" data-name="Контур 74" class="cls-22" d="M228,430.17h-6.832V437H228V430.17Z"/>
      <path id="Контур_75" data-name="Контур 75" class="cls-22" d="M238.242,430.17H231.41V437h6.832V430.17Z"/>
      <path id="Контур_76" data-name="Контур 76" class="cls-22" d="M248.486,430.17h-6.83V437h6.83V430.17Z"/>
      <path id="Контур_77" data-name="Контур 77" class="cls-22" d="M258.733,430.17H251.9V437h6.832V430.17Z"/>
      <path id="Контур_78" data-name="Контур 78" class="cls-22" d="M268.977,430.17h-6.829V437h6.829V430.17Z"/>
      <path id="Контур_79" data-name="Контур 79" class="cls-22" d="M279.223,430.17h-6.832V437h6.832V430.17Z"/>
      <path id="Контур_80" data-name="Контур 80" class="cls-22" d="M289.469,430.17h-6.831V437h6.831V430.17Z"/>
      <path id="Контур_81" data-name="Контур 81" class="cls-35" d="M224.581,358.5v0Z"/>
      <path id="Контур_82" data-name="Контур 82" class="cls-35" d="M286.054,358.5v0Z"/>
      <rect id="Прямоугольник_26" data-name="Прямоугольник 26" class="cls-36" width="102.453" height="78.494" transform="translate(204.09 368.742)"/>
    </g>
    <g id="Сгруппировать_32" data-name="Сгруппировать 32">
      <line id="Линия_33" data-name="Линия 33" class="cls-37" y2="72.053" transform="translate(963.875 345.394)"/>
      <g id="Сгруппировать_29" data-name="Сгруппировать 29">
        <g id="Сгруппировать_25" data-name="Сгруппировать 25">
          <path id="Контур_83" data-name="Контур 83" class="cls-32" d="M952.439,355.065c0,7.1,4.486,13.4,11.435,17.447,6.945-4.041,11.434-10.342,11.435-17.447s-4.492-13.406-11.435-17.446C956.927,341.659,952.439,347.96,952.439,355.065Z"/>
          <line id="Линия_34" data-name="Линия 34" class="cls-14" x1="0.001" y2="46.478" transform="translate(963.872 337.621)"/>
          <line id="Линия_35" data-name="Линия 35" class="cls-14" x2="9.638" y2="10.318" transform="translate(953.682 352.061)"/>
          <line id="Линия_36" data-name="Линия 36" class="cls-14" x1="10.273" y2="11.808" transform="translate(963.949 348.075)"/>
        </g>
        <g id="Сгруппировать_28" data-name="Сгруппировать 28">
          <g id="Сгруппировать_26" data-name="Сгруппировать 26">
            <path id="Контур_84" data-name="Контур 84" class="cls-32" d="M935.058,389.64c5.022,5.022,12.658,6.31,20.432,4.258,2.052-7.766.767-15.393-4.261-20.417s-12.661-6.307-20.429-4.257C928.745,376.99,930.031,384.617,935.058,389.64Z"/>
            <line id="Линия_37" data-name="Линия 37" class="cls-14" x2="32.888" y2="32.865" transform="translate(930.799 369.226)"/>
            <line id="Линия_38" data-name="Линия 38" class="cls-14" x2="14.118" y2="0.485" transform="translate(933.808 386.638)"/>
            <line id="Линия_39" data-name="Линия 39" class="cls-14" x2="1.092" y2="15.608" transform="translate(945.512 369.306)"/>
          </g>
          <g id="Сгруппировать_27" data-name="Сгруппировать 27">
            <path id="Контур_85" data-name="Контур 85" class="cls-32" d="M992.692,389.64c-5.025,5.022-12.659,6.31-20.432,4.258-2.052-7.766-.767-15.393,4.261-20.417s12.661-6.307,20.431-4.257C999.006,376.99,997.719,384.617,992.692,389.64Z"/>
            <line id="Линия_40" data-name="Линия 40" class="cls-14" x1="32.888" y2="32.865" transform="translate(964.063 369.226)"/>
            <line id="Линия_41" data-name="Линия 41" class="cls-14" x1="14.115" y2="0.487" transform="translate(981.648 383.448)"/>
          </g>
        </g>
      </g>
      <g id="Сгруппировать_31" data-name="Сгруппировать 31">
        <g id="Сгруппировать_30" data-name="Сгруппировать 30">
          <path id="Контур_86" data-name="Контур 86" class="cls-10" d="M940.713,445a2.515,2.515,0,0,0,2.321,2.231h41.679A2.519,2.519,0,0,0,987.036,445c1.311-10.148,2.627-15.945,3.944-26.094a2.007,2.007,0,0,0-2.149-2.23H938.913a2,2,0,0,0-2.143,2.23C938.081,429.059,939.4,434.856,940.713,445Z"/>
          <path id="Контур_87" data-name="Контур 87" class="cls-10" d="M992.64,420.434H935.111l-1.756-12.723H994.4Z"/>
        </g>
      </g>
    </g>
    <g id="Сгруппировать_35" data-name="Сгруппировать 35">
      <g id="Сгруппировать_33" data-name="Сгруппировать 33">
        <path id="Контур_88" data-name="Контур 88" class="cls-38" d="M440.682,468.812h4.966v-8.683h-4.966a.947.947,0,0,0-.945.953v6.775A.948.948,0,0,0,440.682,468.812Z"/>
        <rect id="Прямоугольник_27" data-name="Прямоугольник 27" class="cls-39" width="123.058" height="8.683" transform="translate(445.647 460.129)"/>
      </g>
      <path id="Контур_89" data-name="Контур 89" class="cls-40" d="M567.7,464.47a11.387,11.387,0,0,0,.852,4.336l15.366-4.339-15.366-4.331A11.377,11.377,0,0,0,567.7,464.47Z"/>
      <g id="Сгруппировать_34" data-name="Сгруппировать 34">
        <rect id="Прямоугольник_28" data-name="Прямоугольник 28" class="cls-41" width="10.204" height="8.804" transform="translate(445.402 460.044)"/>
      </g>
      <path id="Контур_90" data-name="Контур 90" class="cls-42" d="M578.9,463.06a12.391,12.391,0,0,0-.09,1.333,10.312,10.312,0,0,0,.115,1.492l5-1.417Z"/>
    </g>
    <path id="Контур_91" data-name="Контур 91" class="cls-14" d="M338.533,115.488c5.591,0,5.591,8.693,11.18,8.693s5.591-8.693,11.18-8.693,5.592,8.693,11.183,8.693,5.594-8.693,11.186-8.693,5.592,8.693,11.183,8.693,5.6-8.693,11.192-8.693,5.6,8.693,11.19,8.693"/>
    <path id="Контур_92" data-name="Контур 92" class="cls-43" d="M958.852,273.014a16.8,16.8,0,1,1-16.8-16.784A16.789,16.789,0,0,1,958.852,273.014Z"/>
    <ellipse id="Эллипс_1" data-name="Эллипс 1" class="cls-44" cx="6.796" cy="6.792" rx="6.796" ry="6.792" transform="translate(1009.206 215.511)"/>
    <rect id="Прямоугольник_29" data-name="Прямоугольник 29" class="cls-45" width="14.256" height="14.256" transform="matrix(0.707, -0.707, 0.707, 0.707, 224.483, 308.511)"/>
    <g id="Сгруппировать_36" data-name="Сгруппировать 36">
      <line id="Линия_42" data-name="Линия 42" class="cls-4" y2="27.529" transform="translate(948.313 188.806)"/>
      <line id="Линия_43" data-name="Линия 43" class="cls-9" x1="27.548" transform="translate(934.539 202.571)"/>
    </g>
    <g id="Сгруппировать_37" data-name="Сгруппировать 37">
      <line id="Линия_44" data-name="Линия 44" class="cls-4" y2="16.903" transform="translate(994.495 295.471)"/>
      <line id="Линия_45" data-name="Линия 45" class="cls-9" x1="16.916" transform="translate(986.036 303.922)"/>
    </g>
    <line id="Линия_46" data-name="Линия 46" class="cls-15" x2="173.02" transform="translate(754.054 273.979)"/>
    <line id="Линия_47" data-name="Линия 47" class="cls-15" x2="43.497" transform="translate(251.901 308.511)"/>
  </g>
</svg>
